PathFileType	4	(X/Y/Z)	C:\Users\WrightLab\Desktop\Jo\P3_25.trc
DataRate	CameraRate	NumFrames	NumMarkers	Units	OrigDataRate	OrigDataStartFrame	OrigNumFrames
100.00	100.00	       17	19	mm	100.00	360	       575
Frame#	Time	Headset_Front			Headset_Back			Headset_Left			Headset_Right			Left_Shoulder			Right_Shoulder			Sternum			C7			Left Elbow			Right Elbow			Left Wrist			Right Wrist			Left ASIS			Right ASIS			S2			Left Knee			Right Knee			Left Ankle			Right Ankle			
		X1	Y1	Z1	X2	Y2	Z2	X3	Y3	Z3	X4	Y4	Z4	X5	Y5	Z5	X6	Y6	Z6	X7	Y7	Z7	X8	Y8	Z8	X9	Y9	Z9	X10	Y10	Z10	X11	Y11	Z11	X12	Y12	Z12	X13	Y13	Z13	X14	Y14	Z14	X15	Y15	Z15	X16	Y16	Z16	X17	Y17	Z17	X18	Y18	Z18	X19	Y19	Z19	

360	3.590	16.05688	1547.97681	1838.85449	182.26944	1606.85510	1724.31055				-42.79921	1569.10461	1705.65735	290.92834	1368.68347	1662.42798	-58.82333	1385.75830	1582.20044	90.18143	1257.43018	1751.18201				360.62872	1038.05066	1686.40894	-145.69110	1043.13257	1546.75354	355.65903	884.85388	1826.60693	-168.04642	872.56055	1694.70313	195.87354	898.45514	1740.98474	-53.00837	905.84497	1709.13220	102.06692	971.29315	1513.10962	214.41959	483.80978	1628.67578	-47.92954	505.91779	1829.23938	200.75235	160.40953	1552.65454	-3.31830	169.34784	1826.37903	
361	3.600	13.09042	1547.76038	1845.07813	180.14426	1605.93115	1732.74268				-44.64633	1567.44885	1712.46716	289.83090	1367.56653	1670.90308	-59.48980	1384.07825	1590.61414	88.69082	1256.50208	1758.62317				360.34387	1037.36743	1696.83325	-145.96095	1041.54578	1553.44299	355.18161	883.66394	1835.67798	-168.64839	870.74640	1701.47656	194.66951	898.10712	1750.38342	-53.94776	905.04828	1716.79834	101.95321	970.37366	1521.78528	212.49591	482.94553	1632.43494	-47.32618	503.36234	1835.29651	200.59888	160.68411	1553.36292	-5.63519	168.08238	1850.71790	
362	3.610	10.45720	1546.84912	1851.01868	179.11794	1604.47449	1739.68042				-45.88305	1567.80603	1719.37524	288.62878	1366.62170	1679.16443	-60.42135	1382.47437	1596.78967	87.09478	1256.28931	1767.83569				358.78925	1036.45654	1704.17749	-146.19844	1039.96167	1560.90906	353.62073	884.17755	1845.64709	-169.28040	869.90204	1710.26526	193.10341	895.94519	1758.05005	-55.56138	903.52228	1725.46790	101.45586	968.66119	1531.17566	211.95232	482.69305	1637.68079	-46.66267	500.15002	1839.51782	200.52444	160.99596	1554.11414	-7.97486	167.52577	1874.19019	
363	3.620	7.67323	1546.90930	1859.04382	177.76823	1603.11829	1746.97754							287.61914	1365.53418	1687.67346	-61.16774	1380.59998	1604.74438	85.54481	1254.57324	1775.15564				358.21198	1034.74536	1713.44849	-146.10864	1038.65869	1568.39514	351.90839	882.31256	1854.04382	-170.11388	867.58429	1716.27002	191.98274	895.51508	1767.43921	-56.34954	902.04596	1733.28442	100.84520	967.66260	1539.03247	210.97351	482.17554	1640.72742	-45.61375	497.58054	1844.14343	200.47234	161.54704	1554.25696	-10.20774	167.30052	1894.98230	
364	3.630	5.13621	1546.14343	1866.38977	175.49922	1601.46753	1755.37866							286.16782	1364.51074	1695.66943	-62.60548	1378.69543	1611.55371	84.10690	1253.64954	1783.83398				356.77188	1034.02734	1722.31995	-146.50264	1036.12329	1576.55701	350.93036	882.61072	1863.26697	-170.61050	866.13202	1725.29187	190.94478	893.90985	1775.44397	-57.61260	899.79138	1741.18616	100.58056	966.92010	1547.08728	210.86632	481.39966	1644.98462	-44.71489	495.49420	1849.40588	200.27461	161.76552	1555.10645	-12.15836	168.55200	1915.25854	
365	3.640	2.78472	1545.31042	1872.19739	173.63676	1600.54211	1763.37415							284.84341	1363.10388	1704.79675	-63.49039	1376.79761	1619.25647	82.55096	1252.43713	1791.11548				355.84006	1033.08899	1730.66968	-146.76343	1033.27112	1583.55164	349.33176	881.37659	1872.48547	-172.09509	863.83734	1732.08484	189.70168	892.44208	1784.08386	-59.38717	898.76947	1750.90747	99.19925	964.82947	1555.43774	210.33824	480.60571	1651.96326	-43.41538	493.54190	1855.02136	200.26715	162.00076	1556.46973	-14.33822	169.49127	1933.73804	
366	3.650	-0.22644	1544.48230	1878.63916	171.59877	1598.95569	1770.25842							283.06580	1361.86047	1713.34937	-65.26934	1374.83484	1626.33313	81.01144	1251.14954	1799.86035				353.75729	1031.57922	1739.49451	-147.09860	1031.44250	1591.28699	347.40988	879.86157	1880.51074	-172.68266	861.37604	1740.90540	188.46042	891.41223	1794.35107	-60.32024	895.98267	1758.41675	98.64247	963.87152	1564.99854	209.83897	479.92023	1656.14355	-42.27051	491.74915	1860.79138	200.52116	162.72733	1557.57300	-15.74831	171.06514	1951.94580	
367	3.660	-3.08665	1543.76807	1884.93860	169.41240	1598.19580	1778.00500							281.27292	1360.68530	1721.48877	-66.98309	1372.97278	1632.99402	78.72010	1249.93542	1807.68750				352.84451	1030.48120	1748.59265	-147.42256	1029.87451	1597.71802	346.72913	878.76129	1890.54114	-173.89282	858.48645	1747.04065	187.12131	889.71112	1801.69678	-61.39685	893.46881	1767.42297	97.86538	962.17236	1574.03809	209.67844	479.79691	1662.74512	-41.96089	490.33905	1866.81787	200.74629	163.18170	1558.37866	-17.28358	172.51801	1966.84412	
368	3.670	-6.06941	1542.59631	1891.28406	167.26161	1597.65027	1785.80457							279.87143	1359.39453	1730.32581	-68.40826	1370.87415	1640.97485	76.70861	1249.67236	1817.35242				351.07440	1029.24463	1758.68274	-148.11539	1027.07092	1606.34167	344.46005	877.33673	1899.42175	-174.55107	856.44250	1754.86816	186.45651	887.56885	1810.58618	-63.17152	891.58759	1776.18433	96.00010	960.40302	1582.83777	208.98058	477.87695	1668.00024	-42.26146	488.32489	1874.59607	201.02560	163.38399	1560.05688	-18.19629	173.30029	1980.15564	
369	3.680	-9.05145	1542.65540	1898.64624	164.76021	1595.41846	1793.01062							277.62411	1358.09802	1738.99927	-70.26073	1368.68115	1648.29590	74.35118	1247.68738	1824.63037				349.42822	1027.78882	1766.68176	-148.86577	1024.91833	1614.23389	342.94681	874.61548	1906.33191	-175.57507	852.88641	1761.33862	185.24904	885.59222	1819.67798	-64.12054	888.78857	1784.35718	94.84183	959.18604	1590.45422	207.92831	477.64182	1676.44141	-43.05343	487.01202	1882.28003	200.86899	163.73772	1560.98657	-19.40969	172.48978	1991.65112	
370	3.690	-11.87678	1541.85291	1905.52441	162.46912	1594.69507	1800.70654							275.56067	1357.02441	1747.36694	-72.16583	1366.70166	1655.00598	72.43939	1246.87708	1834.19922				347.20377	1026.31628	1775.88159	-149.59317	1021.83289	1622.57300	341.10779	872.53241	1913.98096	-176.99063	850.17426	1769.17480	183.66353	884.12305	1827.53394	-65.65586	886.37573	1793.33032	93.40863	957.88300	1599.04041	207.92311	475.67139	1683.46826	-43.43457	485.66345	1890.68726	200.99269	164.55937	1562.72583	-19.87212	171.55948	2001.68457	
371	3.700	-14.77432	1541.86011	1912.26404	159.99721	1593.03503	1808.37341							273.24182	1356.07104	1756.64111	-74.10133	1364.53125	1663.14807	69.86722	1245.41223	1841.77808				344.71622	1025.32788	1783.97974	-150.20782	1019.24786	1631.83936	338.74643	870.20660	1921.54272	-177.87747	847.61090	1776.68713	182.72282	882.57019	1837.58240	-67.28861	884.44489	1802.79163	92.34592	956.22351	1609.05176	207.27979	474.11191	1689.52124	-44.25483	484.08151	1899.98535	201.33382	164.91486	1564.07385	-20.38528	169.56787	2008.90833	
372	3.710	-18.33535	1541.13513	1919.26648	157.60942	1591.57458	1814.37207							270.79138	1355.05542	1766.30859	-76.17534	1362.37378	1669.98499	67.10219	1244.64270	1851.21057				343.02881	1024.35400	1793.32019	-151.23462	1017.64575	1637.45605	335.72186	869.10638	1931.09656	-179.35754	843.69885	1782.38916	180.95567	880.78455	1846.65271	-68.39873	882.13141	1810.68481	91.19954	954.65491	1617.62292	206.88260	472.94598	1699.35449	-45.42877	483.01245	1909.79590	201.02904	165.62068	1566.20728	-20.29922	166.60124	2015.92993	
373	3.720	-21.35424	1540.79126	1925.20825	155.31967	1590.90222	1821.27234							268.33102	1354.22656	1774.79395	-78.43737	1360.47229	1676.84534	64.64080	1244.16797	1859.87927				340.71332	1023.67371	1803.98730	-152.50993	1015.10278	1645.05505	333.84229	867.05957	1938.38098	-180.70720	841.71442	1790.22705	179.52045	879.61938	1855.24609	-69.67265	880.39136	1820.26440	90.23766	953.24170	1627.57983	206.53047	472.16138	1708.30115	-46.89151	481.91931	1920.29321	201.92104	166.63324	1567.70789	-20.08506	162.95325	2019.65723	
374	3.730	-25.01989	1540.19177	1931.97119	152.40924	1589.56860	1829.62561							265.67050	1353.26660	1784.59436	-80.60558	1358.20337	1684.00330	61.36793	1242.20483	1867.72876				337.50235	1022.42596	1810.78748	-152.99268	1012.32257	1653.76538	331.33798	864.18372	1945.19507	-182.01941	838.17780	1797.38159	178.69681	878.61731	1865.33154	-71.35821	878.73761	1829.68591	88.26192	952.10742	1637.67957	206.87392	469.36487	1716.20154	-48.30865	480.26187	1930.02808	202.06616	167.55157	1570.48950	-19.19085	158.76981	2023.94312	
375	3.740	-28.55837	1540.11206	1938.29419	149.82880	1588.82996	1836.22729							262.75116	1352.61316	1793.71716	-82.84155	1355.96948	1692.24353	58.19591	1241.94214	1877.40417				335.20071	1021.67780	1820.74890	-153.64856	1009.51874	1662.59985	328.61121	861.34369	1952.30664	-183.81895	835.13208	1804.13696	177.08638	877.26733	1874.88538	-72.99698	877.78638	1839.57642	86.85884	949.54553	1647.84192	205.65079	468.71719	1726.91064	-49.62475	478.14667	1940.54419	201.90434	168.78696	1573.32837	-18.53380	156.07607	2028.59045	
376	3.750	-31.86733	1539.68042	1944.56494	146.18933	1587.41248	1843.57019							259.48071	1352.11584	1803.54810	-85.46983	1353.95081	1699.41040	55.31395	1241.01904	1886.43262				332.26288	1021.14020	1829.09070	-154.96790	1006.93640	1671.11865	325.38095	859.94604	1960.53418	-184.55414	832.02118	1811.00415	175.52190	876.01172	1883.78442	-74.86202	877.24261	1849.63074	85.48505	949.25305	1658.77869	204.53517	466.74600	1734.94421	-50.65449	476.73428	1950.48889	202.55020	170.39371	1575.79004	-18.73607	154.17039	2035.59595	
